<svg xmlns="http://www.w3.org/2000/svg" width="1635.31" height="1963.784" viewBox="-2029.158 0 1635.31 1963.784"><switch><g><linearGradient id="a9" gradientUnits="userSpaceOnUse" x1="-793.821" y1="87.945" x2="-1435.688" y2="1995.557"><stop offset="0" stop-color="#f37961"></stop><stop offset="1" stop-color="#ee4323"></stop></linearGradient><path fill="url(#a9)" d="M-1503.076 1963.652c-117.748-50.898-227.932-180.257-228.195-312.617-.32-144.308 91.132-266.825 204.876-347.342-13.674 51.664-21.132 98.919 12.745 145.131 31.493 42.963 86.65 63.84 138.732 52.51 121.695-26.642 127.279-160.424 55.134-238.367-71.332-77.186-140.337-164.371-113.186-276.306 13.593-56.111 48.045-108.671 91.691-146.24-33.549 88.164 61.785 175.11 124.598 218.419 108.958 75.139 228.508 131.924 328.692 220.005 105.382 92.571 183.201 217.736 167.487 362.907-17.029 157.349-142.063 266.784-282.309 322.032 296.361-65.411 602.581-295.424 608.854-624.1 5.197-270.402-180.298-478.501-410.08-597.64l-12.005-6.553c6.307 15.302 8.37 28.318 8.132 39.97 2.056-8.593 3.453-17.424 3.849-26.534a129.361 129.361 0 0 1-4.21 32.068l.361-5.534a134.688 134.688 0 0 1-17.013 40.546l3.372-3.626c-45.842 76.035-169.946 92.546-231.255 13.814-98.557-126.646 2.064-263.191 16.142-397.303 17.621-168.079-87.785-331.25-218.477-428.894 71.981 116.441-22.851 270.493-98.721 356.617-73.568 83.485-163.039 153.188-244.254 229.042-87.242 81.471-171.113 167.29-242.823 262.912-143.419 191.391-231.221 432.1-166.697 670.869 64.481 238.605 271.166 390.494 504.566 444.205l-.006.009z"></path></g></switch></svg>